ffmpeg started on 2016-12-12 at 09:12:55
Report written to "Output/theora/results/ffmpeg/sintel11000k.log"
Command line:
Tools/ffmpeg/ffmpeg -benchmark -y -i Input/y4m/sintel.y4m -c:v libtheora -b:v 11000k -an Output/theora/encoded/sintel11000k.mkv
ffmpeg version N-82227-gdb23fde Copyright (c) 2000-2016 the FFmpeg developers
  built with gcc 5.4.0 (Ubuntu 5.4.0-6ubuntu1~16.04.2) 20160609
  configuration: --prefix=/home/jaroslav/ffmpeg_build --pkg-config-flags=--static --extra-cflags=-I/home/jaroslav/ffmpeg_build/include --extra-ldflags=-L/home/jaroslav/ffmpeg_build/lib --bindir=/home/jaroslav/bin --enable-gpl --enable-libass --enable-libfdk-aac --enable-libfreetype --enable-libmp3lame --enable-libopus --enable-libtheora --enable-libvorbis --enable-libvpx --enable-libx264 --enable-libx265 --enable-nvenc --enable-libmfx --enable-libxvid --enable-libgsm --enable-libopencore-amrnb --enable-version3 --enable-nonfree
  libavutil      55. 35.100 / 55. 35.100
  libavcodec     57. 66.101 / 57. 66.101
  libavformat    57. 57.100 / 57. 57.100
  libavdevice    57.  2.100 / 57.  2.100
  libavfilter     6. 66.100 /  6. 66.100
  libswscale      4.  3.100 /  4.  3.100
  libswresample   2.  4.100 /  2.  4.100
  libpostproc    54.  2.100 / 54.  2.100
Input #0, yuv4mpegpipe, from 'Input/y4m/sintel.y4m':
  Duration: 00:00:20.83, start: 0.000000, bitrate: 2057307 kb/s
    Stream #0:0: Video: rawvideo (I420 / 0x30323449), yuv420p(progressive), 4096x1744, SAR 1:1 DAR 256:109, 24 fps, 24 tbr, 24 tbn, 24 tbc
Output #0, matroska, to 'Output/theora/encoded/sintel11000k.mkv':
  Metadata:
    encoder         : Lavf57.57.100
    Stream #0:0: Video: theora (libtheora) (theo / 0x6F656874), yuv420p, 4096x1744 [SAR 1:1 DAR 256:109], q=2-31, 11000 kb/s, 24 fps, 1k tbn, 24 tbc
    Metadata:
      encoder         : Lavc57.66.101 libtheora
Stream mapping:
  Stream #0:0 -> #0:0 (rawvideo (native) -> theora (libtheora))
Press [q] to stop, [?] for help
frame=    3 fps=1.5 q=-0.0 size=       4kB time=00:00:00.08 bitrate= 380.5kbits/s speed=0.0415x    frame=    5 fps=1.9 q=-0.0 size=       4kB time=00:00:00.16 bitrate= 190.2kbits/s speed=0.0628x    frame=    7 fps=2.1 q=-0.0 size=       4kB time=00:00:00.25 bitrate= 127.3kbits/s speed=0.0756x    frame=    9 fps=2.3 q=-0.0 size=       4kB time=00:00:00.33 bitrate=  95.7kbits/s speed=0.0846x    frame=   11 fps=2.4 q=-0.0 size=       4kB time=00:00:00.41 bitrate=  76.5kbits/s speed=0.0912x    frame=   13 fps=2.5 q=-0.0 size=     738kB time=00:00:00.50 bitrate=12067.2kbits/s speed=0.096x    frame=   16 fps=2.7 q=-0.0 size=     738kB time=00:00:00.62 bitrate=9657.6kbits/s speed=0.104x    frame=   18 fps=1.8 q=-0.0 size=     738kB time=00:00:00.70 bitrate=8527.1kbits/s speed=0.0711x    frame=   19 fps=1.4 q=-0.0 size=     738kB time=00:00:00.75 bitrate=8050.2kbits/s speed=0.0558x    frame=   21 fps=1.5 q=-0.0 size=     738kB time=00:00:00.83 bitrate=7249.0kbits/s speed=0.0591x    frame=   23 fps=1.6 q=-0.0 size=     738kB time=00:00:00.91 bitrate=6585.7kbits/s speed=0.0623x    frame=   25 fps=1.6 q=-0.0 size=    1428kB time=00:00:01.00 bitrate=11683.9kbits/s speed=0.0651x    frame=   28 fps=1.7 q=-0.0 size=    1428kB time=00:00:01.12 bitrate=10386.8kbits/s speed=0.0697x    frame=   30 fps=1.8 q=-0.0 size=    1428kB time=00:00:01.20 bitrate=9673.8kbits/s speed=0.072x    frame=   32 fps=1.8 q=-0.0 size=    1428kB time=00:00:01.29 bitrate=9045.3kbits/s speed=0.0742x    frame=   34 fps=1.9 q=-0.0 size=    1428kB time=00:00:01.37 bitrate=8499.7kbits/s speed=0.0762x    frame=   36 fps=1.9 q=-0.0 size=    1428kB time=00:00:01.45 bitrate=8016.2kbits/s speed=0.078x    frame=   39 fps=2.0 q=-0.0 size=    2028kB time=00:00:01.58 bitrate=10485.8kbits/s speed=0.0812x    frame=   41 fps=2.0 q=-0.0 size=    2028kB time=00:00:01.66 bitrate=9957.8kbits/s speed=0.0828x    frame=   43 fps=2.1 q=-0.0 size=    2028kB time=00:00:01.75 bitrate=9485.8kbits/s speed=0.0842x    frame=   45 fps=2.1 q=-0.0 size=    2028kB time=00:00:01.83 bitrate=9056.5kbits/s speed=0.0856x    frame=   47 fps=2.1 q=-0.0 size=    2028kB time=00:00:01.91 bitrate=8659.8kbits/s speed=0.087x    frame=   49 fps=2.2 q=-0.0 size=    2660kB time=00:00:02.00 bitrate=10888.2kbits/s speed=0.0882x    frame=   52 fps=2.2 q=-0.0 size=    2660kB time=00:00:02.12 bitrate=10248.0kbits/s speed=0.0905x    frame=   54 fps=2.2 q=-0.0 size=    2660kB time=00:00:02.20 bitrate=9862.9kbits/s speed=0.0915x    frame=   56 fps=2.3 q=-0.0 size=    2660kB time=00:00:02.29 bitrate=9501.6kbits/s speed=0.0925x    frame=   58 fps=2.3 q=-0.0 size=    2660kB time=00:00:02.37 bitrate=9169.7kbits/s speed=0.0934x    frame=   60 fps=2.3 q=-0.0 size=    2660kB time=00:00:02.45 bitrate=8860.2kbits/s speed=0.0942x    frame=   63 fps=2.3 q=-0.0 size=    3428kB time=00:00:02.58 bitrate=10868.3kbits/s speed=0.0961x    frame=   65 fps=2.4 q=-0.0 size=    3428kB time=00:00:02.66 bitrate=10526.2kbits/s speed=0.0969x    frame=   67 fps=2.4 q=-0.0 size=    3767kB time=00:00:02.75 bitrate=11218.0kbits/s speed=0.0972x    frame=   69 fps=2.4 q=-0.0 size=    3852kB time=00:00:02.83 bitrate=11133.5kbits/s speed=0.0975x    frame=   71 fps=2.4 q=-0.0 size=    3939kB time=00:00:02.91 bitrate=11059.6kbits/s speed=0.0978x    frame=   73 fps=2.4 q=-0.0 size=    4035kB time=00:00:03.00 bitrate=11014.7kbits/s speed=0.098x    frame=   75 fps=2.4 q=-0.0 size=    4123kB time=00:00:03.08 bitrate=10951.1kbits/s speed=0.0985x    frame=   77 fps=2.4 q=-0.0 size=    4212kB time=00:00:03.16 bitrate=10891.8kbits/s speed=0.0986x    frame=   79 fps=2.4 q=-0.0 size=    4305kB time=00:00:03.25 bitrate=10849.1kbits/s speed=0.0987x    frame=   81 fps=2.4 q=-0.0 size=    4405kB time=00:00:03.33 bitrate=10822.7kbits/s speed=0.0988x    frame=   83 fps=2.4 q=-0.0 size=    4507kB time=00:00:03.41 bitrate=10801.7kbits/s speed=0.0989x    frame=   85 fps=2.4 q=-0.0 size=    4617kB time=00:00:03.50 bitrate=10803.6kbits/s speed=0.099x    frame=   87 fps=2.4 q=-0.0 size=    4719kB time=00:00:03.58 bitrate=10786.7kbits/s speed=0.099x    frame=   89 fps=2.4 q=-0.0 size=    4827kB time=00:00:03.66 bitrate=10781.3kbits/s speed=0.0991x    frame=   91 fps=2.4 q=-0.0 size=    4944kB time=00:00:03.75 bitrate=10796.9kbits/s speed=0.0992x    frame=   93 fps=2.4 q=-0.0 size=    5067kB time=00:00:03.83 bitrate=10825.5kbits/s speed=0.0992x    frame=   95 fps=2.4 q=-0.0 size=    5128kB time=00:00:03.91 bitrate=10722.2kbits/s speed=0.0993x    frame=   97 fps=2.4 q=-0.0 size=    5238kB time=00:00:04.00 bitrate=10725.4kbits/s speed=0.0996x    frame=   99 fps=2.4 q=-0.0 size=    5352kB time=00:00:04.08 bitrate=10735.7kbits/s speed=0.0998x    frame=  101 fps=2.4 q=-0.0 size=    5523kB time=00:00:04.16 bitrate=10855.5kbits/s speed= 0.1x    frame=  103 fps=2.4 q=-0.0 size=    5523kB time=00:00:04.25 bitrate=10643.5kbits/s speed=0.101x    frame=  105 fps=2.4 q=-0.0 size=    5523kB time=00:00:04.33 bitrate=10439.7kbits/s speed=0.101x    frame=  107 fps=2.5 q=-0.0 size=    5863kB time=00:00:04.41 bitrate=10871.4kbits/s speed=0.101x    frame=  109 fps=2.5 q=-0.0 size=    5863kB time=00:00:04.50 bitrate=10671.0kbits/s speed=0.102x    frame=  111 fps=2.5 q=-0.0 size=    5863kB time=00:00:04.58 bitrate=10477.8kbits/s speed=0.102x    frame=  113 fps=2.5 q=-0.0 size=    6146kB time=00:00:04.66 bitrate=10785.1kbits/s speed=0.102x    frame=  115 fps=2.5 q=-0.0 size=    6146kB time=00:00:04.75 bitrate=10596.7kbits/s speed=0.103x    frame=  117 fps=2.5 q=-0.0 size=    6361kB time=00:00:04.83 bitrate=10780.1kbits/s speed=0.103x    frame=  119 fps=2.5 q=-0.0 size=    6361kB time=00:00:04.91 bitrate=10596.0kbits/s speed=0.103x    frame=  121 fps=2.5 q=-0.0 size=    6361kB time=00:00:05.00 bitrate=10420.1kbits/s speed=0.103x    frame=  123 fps=2.5 q=-0.0 size=    6361kB time=00:00:05.08 bitrate=10250.0kbits/s speed=0.104x    frame=  125 fps=2.5 q=-0.0 size=    6970kB time=00:00:05.16 bitrate=11048.6kbits/s speed=0.104x    frame=  127 fps=2.5 q=-0.0 size=    7148kB time=00:00:05.25 bitrate=11151.7kbits/s speed=0.104x    frame=  129 fps=2.5 q=-0.0 size=    7321kB time=00:00:05.33 bitrate=11243.0kbits/s speed=0.104x    frame=  131 fps=2.5 q=-0.0 size=    7503kB time=00:00:05.41 bitrate=11344.2kbits/s speed=0.104x    frame=  133 fps=2.5 q=-0.0 size=    7701kB time=00:00:05.50 bitrate=11468.2kbits/s speed=0.103x    frame=  135 fps=2.5 q=-0.0 size=    7900kB time=00:00:05.58 bitrate=11589.1kbits/s speed=0.103x    frame=  137 fps=2.5 q=-0.0 size=    8094kB time=00:00:05.66 bitrate=11697.9kbits/s speed=0.103x    frame=  139 fps=2.5 q=-0.0 size=    8283kB time=00:00:05.75 bitrate=11798.8kbits/s speed=0.103x    frame=  141 fps=2.5 q=-0.0 size=    8283kB time=00:00:05.83 bitrate=11630.9kbits/s speed=0.103x    frame=  143 fps=2.5 q=-0.0 size=    8283kB time=00:00:05.91 bitrate=11465.9kbits/s speed=0.103x    frame=  145 fps=2.5 q=-0.0 size=    8283kB time=00:00:06.00 bitrate=11307.3kbits/s speed=0.104x    frame=  147 fps=2.5 q=-0.0 size=    8283kB time=00:00:06.08 bitrate=11153.0kbits/s speed=0.104x    frame=  149 fps=2.5 q=-0.0 size=    8283kB time=00:00:06.16 bitrate=11001.1kbits/s speed=0.104x    frame=  151 fps=2.5 q=-0.0 size=    8970kB time=00:00:06.25 bitrate=11755.7kbits/s speed=0.105x    frame=  154 fps=2.5 q=-0.0 size=    8970kB time=00:00:06.37 bitrate=11525.3kbits/s speed=0.105x    frame=  156 fps=2.6 q=-0.0 size=    8970kB time=00:00:06.45 bitrate=11377.2kbits/s speed=0.106x    frame=  158 fps=2.6 q=-0.0 size=    9235kB time=00:00:06.54 bitrate=11562.0kbits/s speed=0.106x    frame=  160 fps=2.6 q=-0.0 size=    9323kB time=00:00:06.62 bitrate=11526.3kbits/s speed=0.106x    frame=  162 fps=2.6 q=-0.0 size=    9458kB time=00:00:06.70 bitrate=11548.2kbits/s speed=0.106x    frame=  164 fps=2.6 q=-0.0 size=    9579kB time=00:00:06.79 bitrate=11551.5kbits/s speed=0.106x    frame=  166 fps=2.6 q=-0.0 size=    9694kB time=00:00:06.87 bitrate=11549.1kbits/s speed=0.106x    frame=  168 fps=2.6 q=-0.0 size=    9815kB time=00:00:06.95 bitrate=11553.6kbits/s speed=0.106x    frame=  170 fps=2.6 q=-0.0 size=    9930kB time=00:00:07.04 bitrate=11550.4kbits/s speed=0.106x    frame=  172 fps=2.6 q=-0.0 size=   10045kB time=00:00:07.12 bitrate=11548.0kbits/s speed=0.106x    frame=  174 fps=2.6 q=-0.0 size=   10164kB time=00:00:07.20 bitrate=11550.1kbits/s speed=0.106x    frame=  176 fps=2.6 q=-0.0 size=   10280kB time=00:00:07.29 bitrate=11546.9kbits/s speed=0.106x    frame=  178 fps=2.6 q=-0.0 size=   10392kB time=00:00:07.37 bitrate=11541.8kbits/s speed=0.106x    frame=  180 fps=2.6 q=-0.0 size=   10508kB time=00:00:07.45 bitrate=11540.5kbits/s speed=0.106x    frame=  182 fps=2.6 q=-0.0 size=   10624kB time=00:00:07.54 bitrate=11538.1kbits/s speed=0.106x    frame=  184 fps=2.6 q=-0.0 size=   10738kB time=00:00:07.62 bitrate=11535.5kbits/s speed=0.106x    frame=  186 fps=2.6 q=-0.0 size=   10738kB time=00:00:07.70 bitrate=11411.3kbits/s speed=0.106x    frame=  188 fps=2.6 q=-0.0 size=   10738kB time=00:00:07.79 bitrate=11288.3kbits/s speed=0.106x    frame=  190 fps=2.6 q=-0.0 size=   10738kB time=00:00:07.87 bitrate=11169.3kbits/s speed=0.106x    frame=  192 fps=2.6 q=-0.0 size=   10738kB time=00:00:07.95 bitrate=11052.9kbits/s speed=0.106x    frame=  194 fps=2.6 q=-0.0 size=   11285kB time=00:00:08.04 bitrate=11494.4kbits/s speed=0.107x    frame=  196 fps=2.6 q=-0.0 size=   11415kB time=00:00:08.12 bitrate=11508.2kbits/s speed=0.106x    frame=  198 fps=2.6 q=-0.0 size=   11547kB time=00:00:08.20 bitrate=11523.5kbits/s speed=0.106x    frame=  200 fps=2.6 q=-0.0 size=   11680kB time=00:00:08.29 bitrate=11538.2kbits/s speed=0.106x    frame=  202 fps=2.6 q=-0.0 size=   11830kB time=00:00:08.37 bitrate=11570.6kbits/s speed=0.106x    frame=  204 fps=2.6 q=-0.0 size=   11991kB time=00:00:08.45 bitrate=11612.3kbits/s speed=0.106x    frame=  206 fps=2.6 q=-0.0 size=   12145kB time=00:00:08.54 bitrate=11645.7kbits/s speed=0.106x    frame=  208 fps=2.6 q=-0.0 size=   12301kB time=00:00:08.62 bitrate=11682.2kbits/s speed=0.106x    frame=  210 fps=2.6 q=-0.0 size=   12382kB time=00:00:08.70 bitrate=11646.8kbits/s speed=0.106x    frame=  212 fps=2.6 q=-0.0 size=   12382kB time=00:00:08.79 bitrate=11535.5kbits/s speed=0.106x    frame=  214 fps=2.6 q=-0.0 size=   12382kB time=00:00:08.87 bitrate=11427.6kbits/s speed=0.106x    frame=  216 fps=2.6 q=-0.0 size=   12382kB time=00:00:08.95 bitrate=11321.8kbits/s speed=0.106x    frame=  218 fps=2.6 q=-0.0 size=   12382kB time=00:00:09.04 bitrate=11216.6kbits/s speed=0.107x    frame=  220 fps=2.6 q=-0.0 size=   12382kB time=00:00:09.12 bitrate=11114.6kbits/s speed=0.107x    frame=  223 fps=2.6 q=-0.0 size=   13078kB time=00:00:09.25 bitrate=11580.9kbits/s speed=0.107x    frame=  225 fps=2.6 q=-0.0 size=   13078kB time=00:00:09.33 bitrate=11477.9kbits/s speed=0.108x    frame=  227 fps=2.6 q=-0.0 size=   13078kB time=00:00:09.41 bitrate=11375.5kbits/s speed=0.108x    frame=  229 fps=2.6 q=-0.0 size=   13078kB time=00:00:09.50 bitrate=11276.1kbits/s speed=0.108x    frame=  231 fps=2.6 q=-0.0 size=   13078kB time=00:00:09.58 bitrate=11178.5kbits/s speed=0.108x    frame=  233 fps=2.6 q=-0.0 size=   13537kB time=00:00:09.66 bitrate=11470.4kbits/s speed=0.108x    frame=  236 fps=2.6 q=-0.0 size=   13537kB time=00:00:09.79 bitrate=11324.0kbits/s speed=0.109x    frame=  238 fps=2.6 q=-0.0 size=   13537kB time=00:00:09.87 bitrate=11228.8kbits/s speed=0.109x    frame=  240 fps=2.6 q=-0.0 size=   13537kB time=00:00:09.95 bitrate=11135.2kbits/s speed=0.109x    frame=  242 fps=2.6 q=-0.0 size=   14189kB time=00:00:10.04 bitrate=11573.9kbits/s speed=0.109x    frame=  244 fps=2.6 q=-0.0 size=   14189kB time=00:00:10.12 bitrate=11479.0kbits/s speed=0.109x    frame=  246 fps=2.6 q=-0.0 size=   14189kB time=00:00:10.20 bitrate=11385.7kbits/s speed=0.109x    frame=  248 fps=2.6 q=-0.0 size=   14189kB time=00:00:10.29 bitrate=11292.8kbits/s speed=0.109x    frame=  250 fps=2.6 q=-0.0 size=   14189kB time=00:00:10.37 bitrate=11202.4kbits/s speed=0.109x    frame=  252 fps=2.6 q=-0.0 size=   14189kB time=00:00:10.45 bitrate=11113.5kbits/s speed=0.109x    frame=  254 fps=2.6 q=-0.0 size=   14849kB time=00:00:10.54 bitrate=11537.6kbits/s speed=0.11x    frame=  257 fps=2.7 q=-0.0 size=   14849kB time=00:00:10.66 bitrate=11402.4kbits/s speed=0.11x    frame=  259 fps=2.7 q=-0.0 size=   14849kB time=00:00:10.75 bitrate=11314.4kbits/s speed=0.11x    frame=  261 fps=2.7 q=-0.0 size=   14849kB time=00:00:10.83 bitrate=11227.7kbits/s speed=0.11x    frame=  263 fps=2.7 q=-0.0 size=   14849kB time=00:00:10.91 bitrate=11141.3kbits/s speed=0.111x    frame=  265 fps=2.7 q=-0.0 size=   14849kB time=00:00:11.00 bitrate=11057.2kbits/s speed=0.111x    frame=  268 fps=2.7 q=-0.0 size=   15302kB time=00:00:11.12 bitrate=11266.6kbits/s speed=0.111x    frame=  270 fps=2.7 q=-0.0 size=   15302kB time=00:00:11.20 bitrate=11183.2kbits/s speed=0.111x    frame=  272 fps=2.7 q=-0.0 size=   15302kB time=00:00:11.29 bitrate=11100.0kbits/s speed=0.111x    frame=  274 fps=2.7 q=-0.0 size=   15302kB time=00:00:11.37 bitrate=11019.0kbits/s speed=0.112x    frame=  276 fps=2.7 q=-0.0 size=   15302kB time=00:00:11.45 bitrate=10939.2kbits/s speed=0.112x    frame=  278 fps=2.7 q=-0.0 size=   15786kB time=00:00:11.54 bitrate=11203.3kbits/s speed=0.112x    frame=  280 fps=2.7 q=-0.0 size=   15786kB time=00:00:11.62 bitrate=11123.3kbits/s speed=0.112x    frame=  282 fps=2.7 q=-0.0 size=   15786kB time=00:00:11.70 bitrate=11044.5kbits/s speed=0.112x    frame=  284 fps=2.7 q=-0.0 size=   15786kB time=00:00:11.79 bitrate=10965.8kbits/s speed=0.112x    frame=  286 fps=2.7 q=-0.0 size=   15786kB time=00:00:11.87 bitrate=10889.2kbits/s speed=0.112x    frame=  288 fps=2.7 q=-0.0 size=   15786kB time=00:00:11.95 bitrate=10813.6kbits/s speed=0.112x    frame=  290 fps=2.7 q=-0.0 size=   16474kB time=00:00:12.04 bitrate=11206.0kbits/s speed=0.112x    frame=  293 fps=2.7 q=-0.0 size=   16474kB time=00:00:12.16 bitrate=11090.8kbits/s speed=0.113x    frame=  295 fps=2.7 q=-0.0 size=   16474kB time=00:00:12.25 bitrate=11015.7kbits/s speed=0.113x    frame=  297 fps=2.7 q=-0.0 size=   16474kB time=00:00:12.33 bitrate=10941.6kbits/s speed=0.113x    frame=  299 fps=2.7 q=-0.0 size=   16474kB time=00:00:12.41 bitrate=10867.6kbits/s speed=0.113x    frame=  301 fps=2.7 q=-0.0 size=   16474kB time=00:00:12.50 bitrate=10795.4kbits/s speed=0.113x    frame=  303 fps=2.7 q=-0.0 size=   17045kB time=00:00:12.58 bitrate=11096.1kbits/s speed=0.113x    frame=  305 fps=2.7 q=-0.0 size=   17045kB time=00:00:12.66 bitrate=11022.6kbits/s speed=0.113x    frame=  307 fps=2.7 q=-0.0 size=   17045kB time=00:00:12.75 bitrate=10950.8kbits/s speed=0.113x    frame=  309 fps=2.7 q=-0.0 size=   17045kB time=00:00:12.83 bitrate=10880.0kbits/s speed=0.113x    frame=  311 fps=2.7 q=-0.0 size=   17045kB time=00:00:12.91 bitrate=10809.3kbits/s speed=0.113x    frame=  313 fps=2.7 q=-0.0 size=   17045kB time=00:00:13.00 bitrate=10740.2kbits/s speed=0.113x    frame=  315 fps=2.7 q=-0.0 size=   17659kB time=00:00:13.08 bitrate=11056.5kbits/s speed=0.113x    frame=  317 fps=2.7 q=-0.0 size=   17659kB time=00:00:13.16 bitrate=10986.0kbits/s speed=0.113x    frame=  319 fps=2.7 q=-0.0 size=   17659kB time=00:00:13.25 bitrate=10917.2kbits/s speed=0.113x    frame=  321 fps=2.7 q=-0.0 size=   17659kB time=00:00:13.33 bitrate=10849.2kbits/s speed=0.114x    frame=  323 fps=2.7 q=-0.0 size=   17659kB time=00:00:13.41 bitrate=10781.3kbits/s speed=0.114x    frame=  325 fps=2.7 q=-0.0 size=   17659kB time=00:00:13.50 bitrate=10715.0kbits/s speed=0.114x    frame=  327 fps=2.7 q=-0.0 size=   18357kB time=00:00:13.58 bitrate=11070.4kbits/s speed=0.114x    frame=  329 fps=2.7 q=-0.0 size=   18357kB time=00:00:13.66 bitrate=11002.4kbits/s speed=0.114x    frame=  331 fps=2.7 q=-0.0 size=   18357kB time=00:00:13.75 bitrate=10936.0kbits/s speed=0.114x    frame=  333 fps=2.7 q=-0.0 size=   18357kB time=00:00:13.83 bitrate=10870.4kbits/s speed=0.114x    frame=  335 fps=2.7 q=-0.0 size=   18357kB time=00:00:13.91 bitrate=10804.8kbits/s speed=0.114x    frame=  337 fps=2.7 q=-0.0 size=   18357kB time=00:00:14.00 bitrate=10740.7kbits/s speed=0.114x    frame=  339 fps=2.7 q=-0.0 size=   19031kB time=00:00:14.08 bitrate=11069.2kbits/s speed=0.114x    frame=  341 fps=2.7 q=-0.0 size=   19031kB time=00:00:14.16 bitrate=11003.5kbits/s speed=0.114x    frame=  343 fps=2.7 q=-0.0 size=   19031kB time=00:00:14.25 bitrate=10939.5kbits/s speed=0.114x    frame=  345 fps=2.7 q=-0.0 size=   19031kB time=00:00:14.33 bitrate=10876.1kbits/s speed=0.114x    frame=  347 fps=2.7 q=-0.0 size=   19031kB time=00:00:14.41 bitrate=10812.7kbits/s speed=0.114x    frame=  349 fps=2.7 q=-0.0 size=   19031kB time=00:00:14.50 bitrate=10750.9kbits/s speed=0.114x    frame=  351 fps=2.7 q=-0.0 size=   19685kB time=00:00:14.58 bitrate=11057.0kbits/s speed=0.114x    frame=  353 fps=2.7 q=-0.0 size=   19685kB time=00:00:14.66 bitrate=10993.7kbits/s speed=0.114x    frame=  355 fps=2.7 q=-0.0 size=   19685kB time=00:00:14.75 bitrate=10931.9kbits/s speed=0.114x    frame=  357 fps=2.7 q=-0.0 size=   19685kB time=00:00:14.83 bitrate=10870.7kbits/s speed=0.114x    frame=  359 fps=2.8 q=-0.0 size=   19685kB time=00:00:14.91 bitrate=10809.5kbits/s speed=0.114x    frame=  361 fps=2.8 q=-0.0 size=   19685kB time=00:00:15.00 bitrate=10749.7kbits/s speed=0.114x    frame=  363 fps=2.8 q=-0.0 size=   20632kB time=00:00:15.08 bitrate=11204.9kbits/s speed=0.114x    frame=  364 fps=2.7 q=-0.0 size=   20632kB time=00:00:15.12 bitrate=11173.8kbits/s speed=0.114x    frame=  366 fps=2.7 q=-0.0 size=   20632kB time=00:00:15.20 bitrate=11112.8kbits/s speed=0.114x    frame=  368 fps=2.8 q=-0.0 size=   20632kB time=00:00:15.29 bitrate=11051.8kbits/s speed=0.114x    frame=  370 fps=2.8 q=-0.0 size=   20632kB time=00:00:15.37 bitrate=10992.1kbits/s speed=0.114x    frame=  372 fps=2.8 q=-0.0 size=   20632kB time=00:00:15.45 bitrate=10933.1kbits/s speed=0.114x    frame=  374 fps=2.8 q=-0.0 size=   20632kB time=00:00:15.54 bitrate=10874.0kbits/s speed=0.114x    frame=  376 fps=2.8 q=-0.0 size=   21286kB time=00:00:15.62 bitrate=11159.5kbits/s speed=0.115x    frame=  378 fps=2.8 q=-0.0 size=   21286kB time=00:00:15.70 bitrate=11100.5kbits/s speed=0.115x    frame=  380 fps=2.8 q=-0.0 size=   21286kB time=00:00:15.79 bitrate=11041.5kbits/s speed=0.115x    frame=  382 fps=2.8 q=-0.0 size=   21286kB time=00:00:15.87 bitrate=10983.8kbits/s speed=0.115x    frame=  384 fps=2.8 q=-0.0 size=   21286kB time=00:00:15.95 bitrate=10926.7kbits/s speed=0.115x    frame=  386 fps=2.8 q=-0.0 size=   21286kB time=00:00:16.04 bitrate=10869.4kbits/s speed=0.115x    frame=  388 fps=2.8 q=-0.0 size=   21879kB time=00:00:16.12 bitrate=11114.4kbits/s speed=0.115x    frame=  390 fps=2.8 q=-0.0 size=   21879kB time=00:00:16.20 bitrate=11057.5kbits/s speed=0.115x    frame=  392 fps=2.8 q=-0.0 size=   21879kB time=00:00:16.29 bitrate=11000.5kbits/s speed=0.115x    frame=  394 fps=2.8 q=-0.0 size=   21879kB time=00:00:16.37 bitrate=10944.8kbits/s speed=0.115x    frame=  396 fps=2.8 q=-0.0 size=   21879kB time=00:00:16.45 bitrate=10889.6kbits/s speed=0.115x    frame=  398 fps=2.8 q=-0.0 size=   21879kB time=00:00:16.54 bitrate=10834.3kbits/s speed=0.115x    frame=  400 fps=2.8 q=-0.0 size=   22845kB time=00:00:16.62 bitrate=11256.4kbits/s speed=0.115x    frame=  402 fps=2.8 q=-0.0 size=   22845kB time=00:00:16.70 bitrate=11200.5kbits/s speed=0.115x    frame=  404 fps=2.8 q=-0.0 size=   22845kB time=00:00:16.79 bitrate=11144.4kbits/s speed=0.115x    frame=  406 fps=2.8 q=-0.0 size=   22845kB time=00:00:16.87 bitrate=11089.6kbits/s speed=0.115x    frame=  408 fps=2.8 q=-0.0 size=   22845kB time=00:00:16.95 bitrate=11035.3kbits/s speed=0.115x    frame=  410 fps=2.8 q=-0.0 size=   22845kB time=00:00:17.04 bitrate=10981.0kbits/s speed=0.115x    frame=  413 fps=2.8 q=-0.0 size=   23431kB time=00:00:17.16 bitrate=11180.3kbits/s speed=0.116x    frame=  415 fps=2.8 q=-0.0 size=   23431kB time=00:00:17.25 bitrate=11126.5kbits/s speed=0.116x    frame=  417 fps=2.8 q=-0.0 size=   23431kB time=00:00:17.33 bitrate=11073.2kbits/s speed=0.116x    frame=  419 fps=2.8 q=-0.0 size=   23788kB time=00:00:17.41 bitrate=11187.9kbits/s speed=0.116x    frame=  420 fps=2.8 q=-0.0 size=   23788kB time=00:00:17.45 bitrate=11161.6kbits/s speed=0.116x    frame=  422 fps=2.8 q=-0.0 size=   23788kB time=00:00:17.54 bitrate=11108.2kbits/s speed=0.116x    frame=  424 fps=2.8 q=-0.0 size=   23788kB time=00:00:17.62 bitrate=11055.9kbits/s speed=0.116x    frame=  426 fps=2.8 q=-0.0 size=   23788kB time=00:00:17.70 bitrate=11004.0kbits/s speed=0.116x    frame=  428 fps=2.8 q=-0.0 size=   23788kB time=00:00:17.79 bitrate=10952.1kbits/s speed=0.116x    frame=  430 fps=2.8 q=-0.0 size=   23788kB time=00:00:17.87 bitrate=10901.2kbits/s speed=0.116x    frame=  433 fps=2.8 q=-0.0 size=   24646kB time=00:00:18.00 bitrate=11216.0kbits/s speed=0.116x    frame=  435 fps=2.8 q=-0.0 size=   24646kB time=00:00:18.08 bitrate=11164.6kbits/s speed=0.116x    frame=  437 fps=2.8 q=-0.0 size=   24646kB time=00:00:18.16 bitrate=11112.9kbits/s speed=0.116x    frame=  439 fps=2.8 q=-0.0 size=   24646kB time=00:00:18.25 bitrate=11062.4kbits/s speed=0.116x    frame=  441 fps=2.8 q=-0.0 size=   24646kB time=00:00:18.33 bitrate=11012.3kbits/s speed=0.116x    frame=  443 fps=2.8 q=-0.0 size=   25110kB time=00:00:18.41 bitrate=11168.4kbits/s speed=0.116x    frame=  445 fps=2.8 q=-0.0 size=   25110kB time=00:00:18.50 bitrate=11118.3kbits/s speed=0.116x    frame=  447 fps=2.8 q=-0.0 size=   25110kB time=00:00:18.58 bitrate=11068.6kbits/s speed=0.116x    frame=  449 fps=2.8 q=-0.0 size=   25110kB time=00:00:18.66 bitrate=11018.8kbits/s speed=0.116x    frame=  451 fps=2.8 q=-0.0 size=   25110kB time=00:00:18.75 bitrate=10970.1kbits/s speed=0.116x    frame=  453 fps=2.8 q=-0.0 size=   25110kB time=00:00:18.83 bitrate=10921.7kbits/s speed=0.116x    frame=  455 fps=2.8 q=-0.0 size=   25788kB time=00:00:18.91 bitrate=11166.7kbits/s speed=0.116x    frame=  457 fps=2.8 q=-0.0 size=   25788kB time=00:00:19.00 bitrate=11117.9kbits/s speed=0.117x    frame=  459 fps=2.8 q=-0.0 size=   25788kB time=00:00:19.08 bitrate=11069.6kbits/s speed=0.117x    frame=  461 fps=2.8 q=-0.0 size=   25788kB time=00:00:19.16 bitrate=11021.1kbits/s speed=0.117x    frame=  463 fps=2.8 q=-0.0 size=   25788kB time=00:00:19.25 bitrate=10973.5kbits/s speed=0.117x    frame=  465 fps=2.8 q=-0.0 size=   25788kB time=00:00:19.33 bitrate=10926.4kbits/s speed=0.117x    frame=  467 fps=2.8 q=-0.0 size=   26429kB time=00:00:19.41 bitrate=11149.9kbits/s speed=0.117x    frame=  469 fps=2.8 q=-0.0 size=   26429kB time=00:00:19.50 bitrate=11102.4kbits/s speed=0.117x    frame=  471 fps=2.8 q=-0.0 size=   26429kB time=00:00:19.58 bitrate=11055.4kbits/s speed=0.117x    frame=  473 fps=2.8 q=-0.0 size=   26429kB time=00:00:19.66 bitrate=11008.2kbits/s speed=0.117x    frame=  475 fps=2.8 q=-0.0 size=   26429kB time=00:00:19.75 bitrate=10961.9kbits/s speed=0.117x    frame=  477 fps=2.8 q=-0.0 size=   26429kB time=00:00:19.83 bitrate=10916.0kbits/s speed=0.117x    frame=  479 fps=2.8 q=-0.0 size=   27076kB time=00:00:19.91 bitrate=11136.0kbits/s speed=0.117x    frame=  481 fps=2.8 q=-0.0 size=   27076kB time=00:00:20.00 bitrate=11089.8kbits/s speed=0.117x    frame=  483 fps=2.8 q=-0.0 size=   27076kB time=00:00:20.08 bitrate=11044.0kbits/s speed=0.117x    frame=  485 fps=2.8 q=-0.0 size=   27076kB time=00:00:20.16 bitrate=10998.0kbits/s speed=0.117x    frame=  487 fps=2.8 q=-0.0 size=   27076kB time=00:00:20.25 bitrate=10952.9kbits/s speed=0.117x    frame=  489 fps=2.8 q=-0.0 size=   27076kB time=00:00:20.33 bitrate=10908.2kbits/s speed=0.117x    frame=  491 fps=2.8 q=-0.0 size=   27665kB time=00:00:20.41 bitrate=11099.8kbits/s speed=0.117x    frame=  493 fps=2.8 q=-0.0 size=   27665kB time=00:00:20.50 bitrate=11054.8kbits/s speed=0.117x    frame=  495 fps=2.8 q=-0.0 size=   27665kB time=00:00:20.58 bitrate=11010.3kbits/s speed=0.117x    frame=  497 fps=2.8 q=-0.0 size=   27665kB time=00:00:20.66 bitrate=10965.5kbits/s speed=0.117x    frame=  499 fps=2.8 q=-0.0 size=   27665kB time=00:00:20.75 bitrate=10921.7kbits/s speed=0.117x    frame=  500 fps=2.8 q=-0.0 size=   27665kB time=00:00:20.79 bitrate=10899.6kbits/s speed=0.117x    frame=  500 fps=2.8 q=-0.0 Lsize=   28284kB time=00:00:20.79 bitrate=11143.3kbits/s speed=0.117x    
video:28271kB audio:0kB subtitle:0kB other streams:0kB global headers:3kB muxing overhead: 0.044971%
bench: utime=158.456s
bench: maxrss=243584kB
